<?xml version="1.0" standalone="no"?>
<!DOCTYPE svg PUBLIC "-//W3C//DTD SVG 20010904//EN"
 "http://www.w3.org/TR/2001/REC-SVG-20010904/DTD/svg10.dtd">
<svg version="1.0" xmlns="http://www.w3.org/2000/svg"
 width="700.000000pt" height="700.000000pt" viewBox="0 0 700.000000 700.000000"
 preserveAspectRatio="xMidYMid meet">
<metadata>
Created by potrace 1.11, written by Peter Selinger 2001-2013
</metadata>
<g transform="translate(0.000000,700.000000) scale(0.100000,-0.100000)"
fill="#000000" stroke="none">
<path d="M3498 5735 c-2 -1 -115 -5 -253 -9 -137 -3 -276 -8 -309 -10 -137
-10 -273 -22 -346 -31 -19 -2 -59 -7 -89 -10 -30 -4 -62 -8 -72 -10 -9 -2 -39
-6 -66 -10 -54 -8 -176 -31 -243 -47 -121 -29 -270 -129 -370 -249 -58 -69
-93 -136 -140 -264 -18 -49 -37 -94 -41 -100 -4 -5 -11 -26 -17 -45 -11 -39
-167 -439 -174 -445 -2 -2 -98 -5 -213 -6 -252 -1 -286 -10 -369 -93 -76 -77
-106 -179 -81 -279 39 -163 165 -248 358 -242 36 1 57 -2 57 -9 0 -6 -21 -65
-46 -131 -56 -146 -77 -214 -103 -327 -21 -88 -24 -105 -36 -191 -4 -27 -9
-59 -12 -70 -9 -37 -10 -1507 -1 -1565 16 -101 100 -223 183 -269 76 -40 127
-52 214 -50 68 2 98 8 142 29 111 51 178 127 219 248 10 29 18 151 20 293 l0
29 68 -7 c37 -4 74 -9 82 -10 8 -2 49 -6 90 -10 41 -4 83 -9 93 -11 10 -2 48
-6 85 -9 37 -3 85 -8 107 -10 22 -2 77 -7 123 -10 45 -3 99 -8 120 -10 95 -10
410 -25 640 -31 450 -11 1137 4 1392 31 25 2 79 7 120 10 209 16 223 17 510
51 14 1 53 5 88 9 l62 6 1 -118 c1 -180 16 -240 80 -326 139 -185 409 -210
578 -52 57 53 108 148 119 221 4 27 7 373 6 769 -1 637 -5 843 -19 865 -2 3
-6 26 -9 51 -6 47 -7 51 -30 149 -24 108 -46 179 -78 259 -16 42 -41 104 -54
139 l-23 62 97 -1 c53 0 109 4 125 10 15 6 27 8 27 6 0 -11 101 59 123 85 77
91 96 220 47 325 -33 71 -80 121 -146 155 -47 24 -57 25 -274 28 -124 2 -226
5 -228 7 -2 2 -48 119 -103 262 -169 437 -181 466 -217 522 -97 154 -290 296
-442 325 -14 3 -36 7 -50 11 -35 7 -186 33 -240 40 -25 3 -56 8 -70 10 -14 2
-52 6 -85 10 -33 3 -80 7 -105 10 -214 21 -247 23 -540 30 -129 3 -245 7 -257
9 -13 2 -24 2 -25 1z m442 -429 c58 -3 146 -8 195 -11 50 -3 106 -7 125 -10
19 -2 69 -7 110 -11 138 -12 219 -21 300 -34 30 -5 82 -12 115 -15 79 -8 140
-39 176 -87 18 -26 58 -131 115 -301 47 -144 90 -270 94 -282 5 -11 20 -51 34
-90 13 -38 43 -122 66 -185 53 -144 54 -155 21 -192 -22 -24 -42 -32 -124 -48
-123 -25 -137 -25 -137 -2 0 63 -123 227 -198 266 -68 35 -374 42 -482 10
-102 -30 -214 -169 -240 -299 -7 -33 -14 -67 -15 -75 -2 -8 -4 -21 -4 -27 -1
-14 -76 -19 -84 -5 -3 4 -8 25 -11 47 -13 83 -17 102 -32 159 -28 112 -107
217 -201 264 -72 37 -308 48 -452 22 -76 -14 -121 -40 -179 -105 -70 -78 -95
-140 -121 -295 l-16 -95 -42 -3 c-41 -3 -42 -3 -48 35 -24 140 -55 211 -129
291 -81 88 -155 108 -391 106 -197 -2 -261 -27 -353 -138 -21 -25 -49 -75 -63
-111 -23 -64 -25 -66 -54 -60 -158 29 -182 36 -205 60 -32 34 -28 67 19 193
75 202 129 357 201 577 40 121 83 239 97 263 41 72 82 91 240 113 76 11 152
21 168 24 17 2 55 6 85 9 30 3 81 8 113 11 31 3 85 8 120 10 34 3 85 7 112 10
28 2 120 7 205 11 85 3 156 7 157 8 6 5 617 -2 713 -8z m-2127 -1894 c23 -11
59 -37 81 -58 150 -150 108 -402 -83 -496 -54 -26 -168 -34 -222 -14 -136 48
-213 154 -213 291 1 228 227 371 437 277z m3609 12 c169 -59 252 -259 174
-419 -54 -109 -142 -167 -262 -171 -100 -4 -169 23 -236 93 -221 228 23 602
324 497z m-3001 -443 c30 -11 99 -37 154 -59 101 -39 361 -117 425 -127 19 -3
51 -10 70 -15 20 -5 53 -12 74 -14 21 -3 57 -8 80 -12 373 -55 822 14 1281
198 112 45 161 59 181 51 77 -29 -186 -288 -477 -468 -169 -105 -304 -163
-476 -206 -133 -34 -353 -32 -488 3 -285 74 -590 254 -838 496 -153 149 -148
213 14 153z"/>
<path d="M3403 5165 c-141 -43 -239 -164 -250 -309 -12 -145 62 -273 196 -339
58 -28 75 -32 151 -32 76 0 92 3 152 33 117 57 190 168 194 294 7 200 -135
357 -330 364 -39 1 -90 -4 -113 -11z"/>
<path d="M2303 5082 c-240 -86 -314 -378 -143 -565 70 -77 149 -111 255 -111
66 1 91 6 143 29 182 82 260 312 165 487 -33 60 -85 109 -155 144 -71 36 -189
43 -265 16z"/>
<path d="M4457 5076 c-111 -47 -185 -132 -211 -243 -38 -167 43 -328 202 -401
83 -37 193 -37 279 2 195 88 266 333 149 509 -67 100 -155 148 -281 154 -68 3
-89 0 -138 -21z"/>
</g>
</svg>
