<?xml version="1.0" encoding="UTF-8" standalone="no"?>
<svg xmlns="http://www.w3.org/2000/svg" version="1.1" y="0px" x="0px" xmlns:xlink="http://www.w3.org/1999/xlink" viewBox="0 0 100 100" enable-background="new 0 0 100 100">
  <switch>
    <g>
      <path fill="white" d="m85.6 44.4h-1.88l1.35 3.52c0.947 2.46 1.72 6.64 1.72 9.28v19.1c0 3.08-2.52 5.6-5.6 5.6s-5.6-2.52-5.6-5.6v-3.05c-8.07 1.06-16.7 1.64-25.6 1.64-8.93 0-17.5-0.578-25.6-1.64v3.05c0 3.08-2.52 5.6-5.6 5.6s-5.6-2.52-5.6-5.6v-19c0-2.64 0.775-6.82 1.72-9.28l1.35-3.52h-1.8c-2.42 0-4.4-1.98-4.4-4.4s1.98-4.4 4.4-4.4h5.26l3.82-9.92c0.948-2.46 3.8-5.07 6.34-5.8 0 0 6.58-1.88 20.2-1.88s20.2 1.88 20.2 1.88c2.54 0.726 5.39 3.34 6.34 5.8l3.82 9.92h5.3c2.42 0 4.4 1.98 4.4 4.4 0 2.5-2 4.4-4.4 4.4zm-30.6-13.4c0 2.77-2.24 5.01-5.01 5.01s-5.01-2.24-5.01-5.01c0-2.77 2.24-5.01 5.01-5.01s5 2.2 5 5zm-20.5-3.9c-2.77 0-5.01 2.24-5.01 5.01s2.24 5.01 5.01 5.01 5.01-2.24 5.01-5.01c0.1-2.8-2.2-5-5-5zm-6.1 28.1c0-2.43-1.97-4.4-4.4-4.4s-4.4 1.97-4.4 4.4 1.97 4.4 4.4 4.4c2.4 0 4.4-1.9 4.4-4.4zm36.5 2.4s-7.48 3.36-14.9 3.36-14.9-3.36-14.9-3.36c-2.6-1.17-3.12-0.439-1.15 1.63 0 0 7.56 7.92 16 7.92 8.47 0 16-7.92 16-7.92 2-2.1 1.5-2.8-1.1-1.6zm7.3-15c0.87-0.153 1.74-0.311 2.61-0.482 0.872-0.18 1.34-0.944 1.04-1.72-1.48-3.83-2.97-8.17-4.46-12.9-0.301-0.954-1.27-1.88-2.14-2.02-12.8-1.94-25.7-1.94-38.5 0-0.877 0.138-1.84 1.06-2.14 2.02-1.49 4.73-2.98 9.07-4.46 12.9-0.301 0.77 0.165 1.53 1.04 1.71 0.867 0.171 1.74 0.329 2.61 0.482 0.386-1.95 2.1-4.07 3.86-4.34 1.92-0.296 3.85-0.296 5.77 0 1.78 0.274 3.5 2.43 3.87 4.39 0.091 0.541 0.183 1.08 0.274 1.61 0.398 0.026 0.796 0.05 1.19 0.073 0.159-0.928 0.318-1.86 0.477-2.8 0.366-1.97 2.1-4.12 3.87-4.39 1.92-0.296 3.85-0.296 5.77 0 1.78 0.274 3.5 2.43 3.87 4.39 0.159 0.941 0.318 1.87 0.477 2.8 0.398-0.023 0.796-0.047 1.19-0.073 0.091-0.537 0.183-1.07 0.274-1.61 0.366-1.97 2.1-4.12 3.87-4.39 1.92-0.296 3.85-0.296 5.77 0 1.5 0.3 3.2 2.4 3.6 4.3zm8.2 12.6c0-2.43-1.97-4.4-4.4-4.4s-4.4 1.97-4.4 4.4 1.97 4.4 4.4 4.4c2.4 0 4.4-1.9 4.4-4.4zm-14.9-28.1c-2.77 0-5.01 2.24-5.01 5.01s2.24 5.01 5.01 5.01 5.01-2.24 5.01-5.01c0-2.8-2.3-5-5-5z"/>
    </g>
  </switch>
</svg>
