<?xml version="1.0" standalone="no"?>
<!DOCTYPE svg PUBLIC "-//W3C//DTD SVG 20010904//EN"
 "http://www.w3.org/TR/2001/REC-SVG-20010904/DTD/svg10.dtd">
<svg version="1.0" xmlns="http://www.w3.org/2000/svg"
 width="664.000000pt" height="942.000000pt" viewBox="0 0 664.000000 942.000000"
 preserveAspectRatio="xMidYMid meet">

<g transform="translate(0.000000,942.000000) scale(0.100000,-0.100000)"
fill="#3467FF" stroke="none">
<path d="M0 9255 c0 -93 4 -165 9 -165 13 0 1643 320 1656 325 6 2 -367 4
-827 4 l-838 1 0 -165z"/>
<path d="M3407 9373 c2 -30 -35 -281 -100 -672 l-104 -624 151 7 c83 3 392 11
686 17 294 7 537 13 539 15 6 5 -18 1161 -25 1242 l-6 62 -572 0 -573 0 4 -47z"/>
<path d="M4886 9398 c3 -13 7 -23 8 -23 0 -1 215 5 476 11 261 7 517 13 568
13 54 1 92 5 92 11 0 7 -199 10 -576 10 l-575 0 7 -22z"/>
<path d="M6263 9331 c2 -96 -9 -122 -61 -142 -19 -7 -1060 -39 -1290 -39 l-64
0 4 -174 c2 -96 7 -178 11 -182 7 -7 1665 99 1745 112 l32 5 0 254 0 255 -189
0 -190 0 2 -89z"/>
<path d="M2575 9174 c-231 -12 -427 -23 -436 -23 -18 -1 -17 14 -34 -369 l-6
-123 166 3 166 3 30 -33 c41 -46 41 -108 0 -154 l-29 -33 -170 -3 -169 -3 -6
-191 c-4 -106 -6 -192 -4 -192 6 -3 822 17 825 19 2 2 45 255 96 564 l92 561
-50 -1 c-28 -1 -240 -12 -471 -25z"/>
<path d="M850 8961 l-845 -168 -3 -216 c-2 -173 0 -217 11 -217 7 0 172 16
367 35 195 19 581 57 856 84 276 28 511 47 521 45 19 -5 21 2 27 163 3 92 9
230 12 306 l7 137 -54 -1 c-30 -1 -434 -76 -899 -168z"/>
<path d="M5760 8559 c-454 -32 -842 -58 -862 -58 l-37 -1 6 -187 c3 -104 7
-189 8 -190 1 -2 368 6 816 17 448 11 844 20 882 20 l67 0 0 230 0 230 -27 -1
c-16 -1 -399 -28 -853 -60z"/>
<path d="M865 8154 c-457 -45 -838 -83 -847 -83 -16 -1 -18 -14 -18 -132 l0
-132 38 5 c20 3 413 56 872 118 459 63 838 116 842 119 4 3 10 48 14 99 l7 92
-39 -1 c-21 -1 -412 -39 -869 -85z"/>
<path d="M6301 7867 c-184 -4 -336 -9 -338 -11 -5 -4 49 -290 56 -298 5 -6
611 50 619 57 1 1 1 60 0 131 l-3 129 -334 -8z"/>
<path d="M4740 7832 c-344 -8 -626 -16 -628 -17 -1 -1 21 -248 50 -549 52
-539 53 -546 74 -546 12 0 217 23 455 50 238 28 458 50 488 50 74 0 114 -24
135 -82 10 -28 50 -370 113 -983 l98 -940 40 3 c90 5 435 56 435 64 0 4 -121
658 -270 1454 -148 795 -270 1461 -270 1480 l0 34 -47 -2 c-27 0 -329 -8 -673
-16z"/>
<path d="M2870 7788 c-437 -11 -796 -21 -797 -22 -1 -1 -5 -93 -9 -204 -7
-190 -6 -202 11 -202 10 0 182 11 384 25 201 14 595 41 875 60 280 19 511 37
514 39 4 5 -12 188 -25 284 l-5 42 -77 -1 c-42 -1 -434 -11 -871 -21z"/>
<path d="M845 7633 c-462 -63 -841 -116 -843 -117 -1 -2 -1 -180 0 -397 l3
-395 855 90 c470 49 856 91 858 92 3 2 31 717 32 802 0 41 -1 42 -32 41 -18
-1 -411 -53 -873 -116z"/>
<path d="M6315 7293 c-132 -14 -241 -26 -243 -28 -3 -2 128 -708 133 -713 1
-2 85 2 186 8 101 5 199 10 217 10 l32 0 0 375 0 375 -42 -1 c-24 -1 -151 -13
-283 -26z"/>
<path d="M3360 7159 c-223 -15 -607 -42 -854 -59 -247 -17 -452 -33 -455 -36
-7 -6 -26 -533 -20 -538 8 -8 1880 141 1889 150 5 5 0 105 -15 259 -14 138
-25 251 -25 253 0 5 -141 -2 -520 -29z"/>
<path d="M1193 6562 c-405 -44 -423 -47 -423 -67 0 -25 122 -1119 126 -1123 3
-4 767 148 773 154 4 3 39 919 41 1037 l0 47 -47 -1 c-27 -1 -238 -22 -470
-47z"/>
<path d="M4620 6473 c-206 -24 -375 -45 -376 -46 -1 -2 131 -1377 137 -1430 4
-26 14 -33 109 -74 154 -66 239 -92 348 -108 119 -17 373 -29 388 -18 8 6 -14
249 -77 848 -49 462 -89 848 -89 858 0 23 6 23 -440 -30z"/>
<path d="M200 6456 l-195 -21 -3 -374 c-2 -353 -1 -373 15 -367 93 36 510 210
517 217 5 4 -3 109 -18 246 -40 361 -31 323 -80 322 -22 -1 -129 -11 -236 -23z"/>
<path d="M2953 6306 c-507 -40 -926 -75 -930 -79 -6 -6 -18 -283 -35 -821 l-3
-99 138 7 c204 11 672 8 832 -4 375 -29 715 -92 1008 -187 60 -19 111 -32 114
-30 2 3 -23 290 -56 639 -34 348 -61 636 -61 641 0 11 -20 10 -1007 -67z"/>
<path d="M6358 6273 c-73 -3 -98 -7 -98 -17 0 -7 25 -145 55 -306 30 -161 55
-295 55 -296 0 -2 61 -4 135 -4 l135 0 0 315 0 315 -92 -2 c-51 -1 -137 -4
-190 -5z"/>
<path d="M425 5549 c-77 -32 -204 -85 -282 -116 l-143 -57 0 -613 c0 -337 2
-613 5 -613 7 0 709 210 711 213 1 1 -29 274 -67 607 -38 333 -69 613 -69 623
0 9 -3 17 -7 16 -5 0 -71 -27 -148 -60z"/>
<path d="M6453 5363 c-13 -3 -23 -12 -23 -21 1 -9 18 -105 38 -212 42 -220 26
-198 130 -184 l42 5 0 210 0 209 -82 -1 c-46 -1 -93 -4 -105 -6z"/>
<path d="M1297 5154 c-196 -39 -360 -74 -363 -77 -7 -7 58 -604 67 -619 6 -9
614 166 632 182 9 8 30 483 25 549 l-3 37 -358 -72z"/>
<path d="M2150 5028 c-96 -5 -175 -10 -176 -11 -3 -5 -45 -1279 -42 -1282 2
-2 95 5 208 15 113 11 376 36 585 55 209 19 864 80 1455 136 1841 171 2023
188 2028 194 8 8 -131 447 -144 452 -6 2 -90 -7 -185 -21 -305 -44 -403 -51
-704 -51 -390 0 -497 17 -743 119 l-132 55 -20 -47 c-11 -25 -19 -51 -18 -58
2 -6 66 -69 143 -138 147 -133 175 -169 175 -224 0 -102 -104 -171 -202 -133
-25 9 -366 316 -411 370 -42 50 -37 104 18 231 25 57 44 105 42 106 -9 9 -239
80 -357 109 -451 114 -938 153 -1520 123z"/>
<path d="M6594 4646 c-3 -8 6 -49 20 -93 l25 -78 1 93 c0 86 -1 92 -20 92 -11
0 -23 -6 -26 -14z"/>
<path d="M803 4087 l-803 -242 0 -817 c0 -450 1 -818 3 -818 5 0 1008 488
1013 492 2 3 -54 117 -125 254 -71 137 -132 263 -136 281 -8 40 23 115 58 138
30 19 87 30 121 21 54 -13 85 -56 202 -284 65 -125 125 -239 134 -255 l17 -27
144 71 c79 39 146 73 148 75 4 4 49 1187 51 1312 0 28 -4 42 -12 41 -7 -1
-374 -110 -815 -242z"/>
<path d="M5770 3802 c-267 -25 -486 -47 -488 -48 -2 -1 64 -213 147 -472 89
-274 151 -485 151 -508 0 -85 -65 -139 -157 -132 -97 8 -91 -5 -276 573 l-163
510 -40 -3 c-191 -14 -3017 -281 -3021 -286 -3 -3 -8 -85 -11 -183 l-5 -178
24 -13 c13 -8 386 -454 829 -993 443 -539 851 -1036 908 -1105 l103 -124 162
85 c89 47 419 214 732 370 314 156 707 358 873 450 248 135 1017 567 1085 609
15 10 17 31 17 211 l0 200 -168 540 c-161 519 -168 540 -192 541 -14 1 -243
-19 -510 -44z"/>
<path d="M1890 2630 c0 -19 -7 -206 -15 -415 -8 -209 -15 -398 -15 -419 l0
-39 23 21 c54 51 145 53 194 3 16 -15 107 -156 202 -313 l175 -286 84 57 c76
50 90 56 138 56 89 0 150 -66 141 -152 -6 -60 -26 -85 -115 -144 -42 -28 -81
-55 -86 -59 -7 -7 286 -501 318 -537 9 -10 74 22 286 137 151 82 276 154 278
159 3 8 -1524 1877 -1589 1946 -19 19 -19 19 -19 -15z"/>
<path d="M1255 2494 c-165 -80 -303 -148 -307 -152 -4 -4 125 -184 287 -401
l293 -393 6 53 c4 44 37 961 36 1022 0 9 -3 17 -7 17 -5 -1 -143 -66 -308
-146z"/>
<path d="M332 2047 l-332 -161 0 -108 0 -109 143 -207 c78 -114 212 -314 297
-444 85 -131 158 -238 162 -238 17 0 838 394 836 401 -5 14 -763 1028 -768
1028 -3 0 -155 -73 -338 -162z"/>
<path d="M6485 1694 c-605 -346 -970 -541 -1570 -839 -504 -250 -829 -417
-849 -435 -5 -5 34 -96 92 -214 l101 -206 135 0 135 0 -39 72 c-52 99 -58 135
-30 193 l22 46 1079 540 1079 539 0 195 c0 107 -1 195 -2 195 -2 0 -70 -39
-153 -86z"/>
<path d="M1845 1357 c-3 -139 -11 -269 -16 -290 -6 -21 -22 -51 -37 -67 -19
-21 -175 -99 -517 -260 -269 -127 -493 -234 -496 -238 -4 -4 50 -105 120 -224
69 -119 134 -230 143 -247 l17 -31 591 0 591 0 220 122 c120 67 219 125 219
129 0 5 -186 312 -414 683 l-414 675 -7 -252z"/>
<path d="M6478 990 l-136 -69 34 -113 c18 -62 55 -187 81 -277 26 -90 53 -166
60 -168 7 -3 37 3 68 11 l55 17 -2 331 c-2 210 -7 332 -13 334 -5 2 -71 -28
-147 -66z"/>
<path d="M5435 464 c-351 -177 -640 -325 -642 -330 -1 -5 12 -36 30 -69 l32
-60 165 -3 165 -2 518 138 c284 76 519 141 522 143 4 5 -140 499 -147 502 -1
1 -291 -142 -643 -319z"/>
<path d="M0 382 l0 -382 235 0 c129 0 235 3 235 6 0 17 -439 726 -466 753 -2
2 -4 -167 -4 -377z"/>
<path d="M3545 142 l-249 -137 313 -3 c173 -1 316 -1 318 1 3 4 -124 277 -129
277 -2 -1 -115 -63 -253 -138z"/>
<path d="M6609 83 c-14 -3 -15 -10 -7 -44 15 -55 38 -52 38 6 0 25 -3 44 -7
44 -5 -1 -15 -3 -24 -6z"/>
</g>
</svg>
