<svg stroke="#FFF" stroke-width="22" stroke-linecap="round" xmlns="http://www.w3.org/2000/svg" width="500" height="700" xmlns:xlink="http://www.w3.org/1999/xlink">
  <path d="M148 583l61 100m-9-62l-19 13"/>
  <path stroke-width="38" d="M-17 589l96 155"/>
  <path d="M34 667l90-41"/>
  <path d="M56 533l69 92"/>
  <path d="M66 463L90 509m45-19L-10 560"/>
  <path d="M125 626l7-249"/>
  <path d="M513 684l-125 33m72-83l29 92m-147-33l172-86m-173 86l18 34"/>
  <path stroke-width="38" d="M159 733L534 534"/>
  <path d="M291 676l18 37M132 480L280 659M132 439l385-35"/>
  <path d="M380 418l26 83M132 369L-16 414"/>
  <path d="M45 207L64 386m-9-116l-75 31"/>
  <path d="M137 200l-161 16m160 85l-79 15"/>
  <path d="M131 439l10-284"/>
  <path d="M135 115l-146 20m150-56l-157 15"/>
  <path d="M145 9L-5 39M140 166l5-164"/>
  <path d="M141 10l100"/>
  <path d="M178 67h-31"/>
  <path d="M227 108L245 4"/>
  <path d="M142 115l366-8m-154L351-5m1 66l156-10"/>
  <path d="M352 14l108-3"/>
  <path d="M461-13v24"/>
  <path d="M142 167l157-9M146 230l163-12m-13-104l22 224"/>
  <path d="M308 216l79-9"/>
  <path d="M403 352L388 207m55-54l63-6M459 228l50-2"/>
  <path d="M473 295l33-m-25 54l20-2"/>
  <path d="M425 109l46 249m49 156l-52-169"/>
  <path d="M304 367l27 25m-16-47L304 367"/>
</svg>
